<?xml version="1.0" encoding="UTF-8"?>
<svg version="1.1" xmlns="http://www.w3.org/2000/svg" width="512" height="512">
<path d="M0 0 C1.9558324 -0.0248929 3.9114572 -0.06469141 5.86703491 -0.10488892 C13.69943261 -0.11889294 20.80601697 0.35280334 26.86923218 5.79721069 C29.20036291 8.40476333 30.85166707 10.83719983 31.25692749 14.34945679 C31.91692749 14.34945679 32.57692749 14.34945679 33.25692749 14.34945679 C33.44255249 13.48320679 33.62817749 12.61695679 33.81942749 11.72445679 C35.67821095 7.36035649 38.27139043 4.87464439 42.25692749 2.34945679 C46.30850872 0.7916049 49.70140076 0.09528697 54.03329468 0.07479858 C55.7086026 0.06050056 55.7086026 0.06050056 57.41775513 0.0459137 C58.61765076 0.0468251 59.81754639 0.04773651 61.05380249 0.04867554 C62.31541199 0.04439041 63.57702148 0.04010529 64.87686157 0.03569031 C67.55675098 0.0299473 70.23625577 0.02850634 72.91610718 0.03378296 C76.92312866 0.04057978 80.92966754 0.01366167 84.93661499 -0.01187134 C119.85449482 -0.09963562 171.32702074 2.78841347 198.60458374 28.56820679 C202.3734689 33.62902657 203.50545761 39.09298114 203.25692749 45.34945679 C202.96630109 46.69274573 202.64603426 48.03131991 202.25692749 49.34945679 C202.80220093 49.06070679 203.34747437 48.77195679 203.90927124 48.47445679 C209.51226847 45.71605815 214.03419381 44.28869285 220.25692749 45.34945679 C227.79592471 48.15550779 233.19361279 52.53925666 238.69442749 58.28695679 C239.42669556 59.03767456 240.15896362 59.78839233 240.91342163 60.56185913 C247.22116353 67.12157752 252.95452854 73.95944933 258.25692749 81.34945679 C258.86794312 82.18597778 258.86794312 82.18597778 259.49130249 83.03939819 C279.07735813 110.08643943 291.81035717 139.96719614 287.98446655 173.75570679 C284.75064021 193.10369896 271.81903084 212.71650861 256.25692749 224.34945679 C237.86291318 236.40070754 219.48793481 240.56874461 197.69442749 240.41195679 C196.49495483 240.40744507 195.29548218 240.40293335 194.05966187 240.39828491 C191.1253639 240.38659448 188.191173 240.37020817 185.25692749 240.34945679 C185.30333374 241.40262085 185.34973999 242.45578491 185.39755249 243.54086304 C185.98850326 262.78159103 180.54267216 280.08569147 167.68270874 294.82601929 C161.31361908 301.45151352 154.52196811 306.51516936 146.38192749 310.72445679 C145.7708313 311.04631958 145.15973511 311.36818237 144.53012085 311.69979858 C132.76587256 317.44442248 120.37621872 317.81165978 107.58114624 317.86117554 C105.91819469 317.87806227 104.25525558 317.89621773 102.59233093 317.91557312 C98.2606394 317.96264634 93.92899834 317.99272957 89.59713745 318.01901245 C85.15876292 318.04903597 80.72056178 318.09549013 76.28231812 318.14047241 C67.60727398 318.22601855 58.93221327 318.29357756 50.25692749 318.34945679 C49.8062793 319.19802246 49.3556311 320.04658813 48.8913269 320.92086792 C47.18842478 324.12643267 45.48351089 327.33092401 43.77804565 330.53512573 C43.04590462 331.91130717 42.31428002 333.2877635 41.58322144 334.66452026 C37.08902869 343.12716999 32.52221258 351.53518396 27.75692749 359.84945679 C23.07953724 368.03767076 18.58247212 376.3044841 14.17095947 384.63778687 C4.1984306 403.4657058 4.1984306 403.4657058 -0.80557251 412.34945679 C-1.20985474 413.08970093 -1.61413696 413.82994507 -2.03067017 414.59262085 C-5.37425671 420.43115392 -9.53201275 424.84640754 -15.68057251 427.72445679 C-23.37624321 429.29500183 -29.0468979 428.47214937 -35.74307251 424.34945679 C-40.27785925 420.01183469 -43.62922735 414.77053384 -43.79458618 408.34896851 C-43.0236312 399.7177291 -40.52766216 391.53077938 -38.18057251 383.22445679 C-37.75078383 381.68039514 -37.32174133 380.13612558 -36.89346313 378.59164429 C-35.85191869 374.84179654 -34.80032236 371.09490533 -33.74307251 367.34945679 C-34.07307251 367.01945679 -34.40307251 366.68945679 -34.74307251 366.34945679 C-35.7472522 366.8921521 -36.75143188 367.43484741 -37.78604126 367.99398804 C-58.50959546 378.95942575 -82.04891548 380.81607143 -104.74307251 374.34945679 C-125.01861062 368.01399341 -142.11257443 354.78259636 -152.53213501 336.15023804 C-155.29789213 330.50291624 -156.90747197 325.64355407 -157.74307251 319.41195679 C-158.28058159 316.14283814 -158.28058159 316.14283814 -159.74307251 313.34945679 C-162.97293787 311.25095669 -166.1315141 310.11428249 -169.77041626 308.86117554 C-182.83388154 304.27427557 -197.54177527 292.8362828 -203.70791626 280.40414429 C-207.03156013 272.10269279 -207.19200054 262.27576486 -204.05557251 253.91195679 C-202.0955848 249.66180422 -199.62264042 246.02890467 -196.74307251 242.34945679 C-197.73307251 242.67945679 -198.72307251 243.00945679 -199.74307251 243.34945679 C-206.08457326 243.9965487 -211.23610868 242.39228765 -216.74307251 239.34945679 C-220.59132444 236.00237255 -223.49577517 231.77253109 -224.01773071 226.65829468 C-224.04664634 223.24219683 -224.07113684 219.82821425 -224.05557251 216.41195679 C-224.05065796 215.15375122 -224.04574341 213.89554565 -224.04067993 212.59921265 C-223.90484998 201.63320802 -222.87340796 191.099683 -220.74307251 180.34945679 C-220.57678345 179.50399292 -220.41049438 178.65852905 -220.23916626 177.78744507 C-213.60220616 145.18645124 -200.12263564 114.69067636 -179.74307251 88.34945679 C-179.12174438 87.53605835 -178.50041626 86.72265991 -177.86026001 85.88461304 C-174.10942424 81.07838016 -170.1524237 76.4858826 -166.05557251 71.97445679 C-165.6039978 71.4743811 -165.1524231 70.97430542 -164.68716431 70.45907593 C-159.89074823 65.24909986 -155.35232104 60.80568517 -148.05947876 60.08383179 C-142.90284781 60.11308927 -138.56207654 60.26556315 -133.74307251 62.34945679 C-134.07307251 61.35945679 -134.40307251 60.36945679 -134.74307251 59.34945679 C-135.78101118 52.09871382 -134.06076261 46.24079248 -129.74307251 40.34945679 C-126.69401084 37.4913344 -123.34676998 35.44699352 -119.74307251 33.34945679 C-119.16621704 33.00559937 -118.58936157 32.66174194 -117.99502563 32.3074646 C-113.31262252 29.52406338 -108.55660752 26.89865648 -103.74307251 24.34945679 C-103.10047485 24.00769409 -102.4578772 23.6659314 -101.79580688 23.31381226 C-70.37503513 6.88931793 -35.15979487 0.42424853 0 0 Z " fill="#F8B0B0" transform="translate(223.74307250976563,41.650543212890625)"/>
<path d="M0 0 C8.08239394 13.93516197 9.16179737 31.21240231 5.4375 46.6875 C-0.42414469 66.01453128 -11.89823971 81.71322046 -29.84155273 91.32348633 C-30.51259033 91.67048584 -31.18362793 92.01748535 -31.875 92.375 C-32.48609619 92.69686279 -33.09719238 93.01872559 -33.72680664 93.3503418 C-45.49105493 99.09496569 -57.88070877 99.46220299 -70.67578125 99.51171875 C-72.3387328 99.52860549 -74.00167191 99.54676094 -75.66459656 99.56611633 C-79.99628809 99.61318955 -84.32792915 99.64327278 -88.65979004 99.66955566 C-93.09816457 99.69957918 -97.53636571 99.74603334 -101.97460938 99.79101562 C-110.64965351 99.87656176 -119.32471422 99.94412077 -128 100 C-128.67597229 101.27284851 -128.67597229 101.27284851 -129.36560059 102.57141113 C-131.06850271 105.77697589 -132.7734166 108.98146723 -134.47888184 112.18566895 C-135.21102287 113.56185038 -135.94264747 114.93830671 -136.67370605 116.31506348 C-141.1678988 124.77771321 -145.73471491 133.18572717 -150.5 141.5 C-155.17739025 149.68821397 -159.67445537 157.95502731 -164.08596802 166.28833008 C-174.05849689 185.11624901 -174.05849689 185.11624901 -179.0625 194 C-179.46678223 194.74024414 -179.87106445 195.48048828 -180.28759766 196.24316406 C-183.6311842 202.08169713 -187.78894025 206.49695075 -193.9375 209.375 C-201.6331707 210.94554504 -207.30382539 210.12269259 -214 206 C-218.53478674 201.6623779 -221.88615484 196.42107705 -222.05151367 189.99951172 C-221.2805587 181.36827231 -218.78458965 173.18132259 -216.4375 164.875 C-216.00771132 163.33093835 -215.57866882 161.7866688 -215.15039062 160.2421875 C-214.10884618 156.49233976 -213.05724985 152.74544854 -212 149 C-212.33 148.67 -212.66 148.34 -213 148 C-214.00417969 148.54269531 -215.00835937 149.08539063 -216.04296875 149.64453125 C-236.76652295 160.60996897 -260.30584297 162.46661464 -283 156 C-303.27553811 149.66453662 -320.36950192 136.43313958 -330.7890625 117.80078125 C-333.55481962 112.15345945 -335.16439946 107.29409728 -336 101.0625 C-336.53750908 97.79338136 -336.53750908 97.79338136 -338 95 C-341.2204864 92.90759358 -344.36087864 91.77465312 -347.9921875 90.53515625 C-352.5588824 88.93489045 -356.38698443 86.45355261 -360.375 83.75 C-361.03532227 83.31276611 -361.69564453 82.87553223 -362.37597656 82.42504883 C-363.95994742 81.34328693 -365.48661521 80.17849012 -367 79 C-367 78.34 -367 77.68 -367 77 C-365.44477882 77.02331642 -365.44477882 77.02331642 -363.85813904 77.04710388 C-354.07427726 77.18917159 -344.29062546 77.29401792 -334.50596523 77.3626852 C-329.47578797 77.39917562 -324.4464451 77.4486486 -319.41674805 77.52807617 C-314.5602254 77.60428669 -309.70450386 77.64602182 -304.84742928 77.6641407 C-302.99701389 77.67704796 -301.14664105 77.70225415 -299.29656792 77.7401104 C-289.47230056 78.28320907 -289.47230056 78.28320907 -280.35322571 75.46426392 C-278.61199795 73.72982131 -277.33012597 72.05426591 -276 70 C-250.60737169 49.58870069 -222.75470283 45.34828889 -191.18359375 45.43359375 C-188.78320579 45.42834358 -186.38281988 45.42206207 -183.98243713 45.41481018 C-179.00324638 45.40450378 -174.02434331 45.40883671 -169.04516602 45.42358398 C-162.66521382 45.44093588 -156.28614855 45.41702463 -149.90629482 45.38209438 C-144.97266175 45.36017559 -140.03924396 45.36154555 -135.10557747 45.3698597 C-132.75123165 45.37067881 -130.39686997 45.36382309 -128.04257011 45.34908867 C-124.76926698 45.331705 -121.49760175 45.34612517 -118.22436523 45.36889648 C-117.2576741 45.35720428 -116.29098297 45.34551208 -115.29499817 45.33346558 C-110.70044023 45.39862797 -108.63923942 45.52263449 -104.86097717 48.34413147 C-103 51 -103 51 -103 54.125 C-104.27602059 57.79355919 -105.56878444 59.28439222 -109 61 C-110.39570789 61.09711291 -111.79590223 61.133365 -113.19497681 61.13803101 C-114.07491806 61.14348434 -114.95485931 61.14893768 -115.86146545 61.15455627 C-116.82966721 61.1555986 -117.79786896 61.15664093 -118.79541016 61.15771484 C-120.32274529 61.16533592 -120.32274529 61.16533592 -121.88093567 61.17311096 C-124.10007484 61.18383497 -126.31922496 61.19244713 -128.53837967 61.19923019 C-132.06310906 61.21101792 -135.58771584 61.23047642 -139.11239624 61.25234985 C-149.1373885 61.31392853 -159.16237195 61.36777646 -169.1875 61.40136719 C-175.3172364 61.42245914 -181.44675531 61.45789055 -187.57636642 61.50212479 C-189.90204662 61.51618544 -192.22776537 61.52498449 -194.55348587 61.52817917 C-215.50768298 61.55997512 -234.15512314 63.38724432 -252.92578125 73.671875 C-254.07087158 74.29674805 -255.21596191 74.92162109 -256.39575195 75.56542969 C-257.25515381 76.03883789 -258.11455566 76.51224609 -259 77 C-237.74577586 77.09368121 -216.49158606 77.16409535 -195.23719692 77.20724869 C-185.36712658 77.22782326 -175.49718496 77.25584561 -165.62719727 77.30175781 C-157.01871892 77.34178256 -148.41033385 77.36746986 -139.80176502 77.37635398 C-135.24881849 77.38154239 -130.69613868 77.39362906 -126.14327812 77.42292023 C-121.84637186 77.45033727 -117.54983883 77.4583927 -113.25285339 77.45243073 C-111.6868899 77.45351934 -110.12091219 77.46131527 -108.5550251 77.4768219 C-88.66438839 77.66391277 -70.65568724 72.1367929 -56.00854492 58.20654297 C-42.633399 44.84287392 -36.29368943 28.29306396 -34.82128906 9.74926758 C-34.33389479 4.47461882 -34.33389479 4.47461882 -32.80786133 2.30541992 C-30.314994 0.50537109 -28.50747129 0.56888559 -25.44921875 0.48828125 C-24.35802734 0.45283203 -23.26683594 0.41738281 -22.14257812 0.38085938 C-21.00240234 0.35830078 -19.86222656 0.33574219 -18.6875 0.3125 C-17.55892578 0.27833984 -16.43035156 0.24417969 -15.26757812 0.20898438 C-10.17684323 0.06216506 -5.09291644 -0.01371989 0 0 Z " fill="#F79595" transform="translate(402,260)"/>
<path d="M0 0 C6.37101323 1.17543598 12.0014543 3.03652426 17.875 5.75 C19.04627441 6.28669312 19.04627441 6.28669312 20.24121094 6.83422852 C21.79144483 7.55113953 23.33907651 8.27370987 24.88378906 9.00244141 C26.71448857 9.86541305 28.55558211 10.70627004 30.3984375 11.54296875 C36.86885777 14.70727017 41.17559165 18.23657004 44 25 C45.1224449 29.86869411 45.42204163 34.18269617 44 39 C44.54527344 38.71125 45.09054687 38.4225 45.65234375 38.125 C51.25534098 35.36660136 55.77726632 33.93923606 62 35 C69.53899722 37.806051 74.9366853 42.18979988 80.4375 47.9375 C81.16976807 48.68821777 81.90203613 49.43893555 82.65649414 50.21240234 C88.96423604 56.77212073 94.69760105 63.60999254 100 71 C100.61101562 71.836521 100.61101562 71.836521 101.234375 72.68994141 C120.82043064 99.73698264 133.55342968 129.61773936 129.72753906 163.40625 C126.49371272 182.75424217 113.56210335 202.36705182 98 214 C79.41619993 226.17559315 60.93877169 230.21455557 38.9375 230.0625 C37.69033203 230.05798828 36.44316406 230.05347656 35.15820312 230.04882812 C32.10541779 230.03713163 29.05273502 230.02074086 26 230 C25.77848267 228.63452026 25.77848267 228.63452026 25.55249023 227.24145508 C22.7750435 210.94620088 15.15728738 196.56951563 1.77734375 186.50390625 C-11.84621757 176.96281982 -25.14639667 174.24282298 -41.41259766 174.40405273 C-43.10126122 174.40214367 -44.78992348 174.39797704 -46.47857666 174.39175415 C-50.08150055 174.3830369 -53.68393921 174.38957194 -57.28682327 174.40841484 C-62.98555921 174.43773545 -68.68388581 174.42965465 -74.38265991 174.41651917 C-85.43693074 174.39595534 -96.49099838 174.41141525 -107.54525757 174.43199158 C-121.65218867 174.45722321 -135.75900952 174.47000974 -149.86594427 174.44203526 C-155.53060424 174.4320883 -161.19476684 174.44219053 -166.85937238 174.46794307 C-170.37556995 174.48010441 -173.89161172 174.4759171 -177.40781403 174.46736526 C-179.03764746 174.46682988 -180.66749986 174.47317578 -182.29727554 174.48690605 C-184.52192801 174.50474017 -186.74522188 174.49803565 -188.96987915 174.4853363 C-190.836323 174.48954669 -190.836323 174.48954669 -192.74047279 174.49384212 C-196.60094486 173.90895247 -198.26408538 172.73478897 -201 170 C-201.85917455 167.05506618 -201.3985621 165.13867651 -201 162 C-199.46665839 159.91589808 -198.6070035 159.11199856 -196.04475403 158.63923645 C-195.30529037 158.64589828 -194.56582672 158.65256012 -193.80395508 158.65942383 C-192.54298759 158.65976372 -192.54298759 158.65976372 -191.25654602 158.66011047 C-190.35333115 158.67559433 -189.45011627 158.69107819 -188.51953125 158.70703125 C-187.59154221 158.71127609 -186.66355316 158.71552094 -185.70744324 158.71989441 C-182.74216757 158.73669338 -179.7775704 158.77434784 -176.8125 158.8125 C-174.80274419 158.82754526 -172.79297773 158.84123394 -170.78320312 158.85351562 C-165.85520714 158.88660092 -160.92771862 158.93839167 -156 159 C-156.259021 158.25049072 -156.51804199 157.50098145 -156.78491211 156.72875977 C-159.01223688 150.18389919 -160.96029119 143.66075618 -162.5625 136.9375 C-162.98326911 135.20415826 -163.40513588 133.47108258 -163.828125 131.73828125 C-164.02728516 130.92182129 -164.22644531 130.10536133 -164.43164062 129.26416016 C-165.15943526 126.36486141 -165.97994111 123.49575732 -166.8125 120.625 C-167.80501846 116.9800615 -168.64737845 113.79178807 -168 110 C-166.4375 107.625 -166.4375 107.625 -164 106 C-160.5 105.4375 -160.5 105.4375 -157 106 C-153.36068426 109.63888813 -151.97657168 113.44052236 -150.74609375 118.3203125 C-150.55910416 119.01961884 -150.37211456 119.71892517 -150.17945862 120.43942261 C-149.58712249 122.66505319 -149.01199202 124.89470452 -148.4375 127.125 C-148.0486748 128.59926179 -147.65871031 130.07322359 -147.26757812 131.546875 C-146.51305089 134.39423028 -145.7669087 137.24357765 -145.02685547 140.09472656 C-143.91825563 144.34765984 -142.72407796 148.57521471 -141.50024414 152.79638672 C-141 155 -141 155 -141 159 C-125.82 159 -110.64 159 -95 159 C-94.505 155.04 -94.505 155.04 -94 151 C-93.32091999 148.46765384 -92.60617713 145.994193 -91.8125 143.5 C-90.19269502 138.26784413 -88.73804073 133.03037038 -87.4765625 127.69921875 C-87.22028076 126.6215625 -86.96399902 125.54390625 -86.69995117 124.43359375 C-86.19871664 122.29961543 -85.70894297 120.16290673 -85.23168945 118.0234375 C-84.99925537 117.03988281 -84.76682129 116.05632812 -84.52734375 115.04296875 C-84.32874756 114.16664795 -84.13015137 113.29032715 -83.92553711 112.38745117 C-82.78867812 109.45488878 -81.43669835 107.96936331 -79 106 C-75.16714591 105.45244942 -72.94078907 105.50608574 -69.5 107.3125 C-66.41433667 112.84098014 -68.45414197 118.91404251 -69.984375 124.76171875 C-71.01699801 128.36241514 -72.12849374 131.93756916 -73.24121094 135.51416016 C-74.66471201 140.17763762 -75.98154207 144.87195254 -77.3125 149.5625 C-78.6428125 154.2340625 -78.6428125 154.2340625 -80 159 C-65.81 158.67 -51.62 158.34 -37 158 C-33.17616898 146.61983472 -33.17616898 146.61983472 -29.37182617 135.2331543 C-28.88791091 133.8049371 -28.40333625 132.37694307 -27.91796875 130.94921875 C-27.67421509 130.20885376 -27.43046143 129.46848877 -27.17932129 128.70568848 C-24.85827802 121.92934905 -24.85827802 121.92934905 -22 120 C-18.5625 119.5 -18.5625 119.5 -15 120 C-12.5 121.9375 -12.5 121.9375 -11 125 C-11.25328119 133.03963529 -13.84768576 140.04998953 -16.5625 147.5625 C-16.98724609 148.76197266 -17.41199219 149.96144531 -17.84960938 151.19726562 C-18.89116577 154.13468871 -19.94145384 157.06866595 -21 160 C-20.3702124 160.10231934 -19.7404248 160.20463867 -19.09155273 160.31005859 C-13.24798625 161.35333667 -8.3103809 162.87047723 -3.0625 165.625 C-2.37792725 165.97763916 -1.69335449 166.33027832 -0.98803711 166.69360352 C14.33067722 174.78322127 27.82282626 186.40817101 34 203 C35.98 202.67 37.96 202.34 40 202 C33.94592843 187.25655512 25.00922972 174.72178035 12.71875 164.546875 C7.68988578 160.0208972 4.41000561 154.3786039 3.59375 147.65234375 C3.29913264 135.97813105 5.8007487 128.37427122 13.890625 119.734375 C26.00666009 107.26577865 26.00666009 107.26577865 30.8125 106.625 C34 107 34 107 36.9375 109.125 C39 112 39 112 39.0546875 114.7421875 C37.55855168 119.36358481 34.70444248 121.76229215 31.1875 125 C23.63252356 131.67259469 23.63252356 131.67259469 19.46875 140.5625 C19.48421875 141.7690625 19.48421875 141.7690625 19.5 143 C19.4896875 143.804375 19.479375 144.60875 19.46875 145.4375 C20.72389097 151.49170937 25.10081222 155.20082521 29.625 159.0625 C39.72733791 168.02202547 47.38682769 178.71421558 53 191 C53 191.66 53 192.32 53 193 C61.50808083 188.83647108 68.19720964 182.14386192 73 174 C71.824375 173.8453125 71.824375 173.8453125 70.625 173.6875 C68 173 68 173 66 170 C65.55884914 166.54431823 65.54444919 164.71303605 67.4375 161.75 C72.14698315 158.53376761 77.39042955 158 83 158 C83.30744141 156.62714844 83.30744141 156.62714844 83.62109375 155.2265625 C84.02521484 153.44378906 84.02521484 153.44378906 84.4375 151.625 C84.70433594 150.44164062 84.97117187 149.25828125 85.24609375 148.0390625 C86 145 86 145 87 143 C86.36578125 143.17015625 85.7315625 143.3403125 85.078125 143.515625 C78.31983172 145.27054094 71.52634358 146.7825336 64.6875 148.1875 C63.41664551 148.45578613 63.41664551 148.45578613 62.12011719 148.72949219 C57.3566675 149.69042404 52.88485246 150.38385406 48 150 C45 147.9375 45 147.9375 43 145 C42.9375 141.375 42.9375 141.375 44 138 C47.00296795 135.1207241 49.69493753 134.44006919 53.75 133.8125 C54.73484375 133.65394531 55.7196875 133.49539062 56.734375 133.33203125 C57.48203125 133.22246094 58.2296875 133.11289063 59 133 C57.93911903 128.3144424 56.63444275 123.97347678 54.875 119.5 C52.39524315 112.69704442 51.89337649 107.94771855 54.875 101.125 C58.18181683 94.97832319 63.65945227 88.17027387 70 85 C75.53846154 84.76923077 75.53846154 84.76923077 78 86 C70.68497675 71.48991048 62.45533293 58.18726079 53 45 C50.05594663 46.32623243 47.99518106 47.76213655 45.73193359 50.05688477 C45.11804779 50.67414932 44.50416199 51.29141388 43.87167358 51.92738342 C43.22050568 52.59201096 42.56933777 53.25663849 41.8984375 53.94140625 C41.22076324 54.62428207 40.54308899 55.3071579 39.84487915 56.01072693 C37.68344708 58.18995478 35.52882592 60.37575639 33.375 62.5625 C31.21317054 64.7519283 29.04990831 66.93989101 26.88369751 69.12498474 C25.5365137 70.48444561 24.19201179 71.8465703 22.85043335 73.21156311 C22.24285187 73.82567551 21.63527039 74.4397879 21.00927734 75.07250977 C20.47507172 75.61496841 19.94086609 76.15742706 19.39047241 76.71632385 C17.27345568 78.67074154 16.02715852 78.99704799 13.125 79.3125 C10 79 10 79 7.625 77.4375 C5.29015706 73.93523559 5.37435842 72.17278706 6 68 C8.18160389 64.84372721 10.88568536 62.29997371 13.65625 59.66015625 C14.82154236 58.50972084 14.82154236 58.50972084 16.01037598 57.33604431 C18.4909542 54.89459296 20.99476705 52.47862064 23.5 50.0625 C25.18778881 48.40982626 26.8740069 46.75554679 28.55859375 45.09960938 C32.68769632 41.04761 36.83613659 37.01625378 41 33 C37.89141557 26.29017998 30.74933536 19.74392625 23.875 16.875 C17.89063975 15.52369285 12.72549104 14.73583831 7.1875 17.8125 C3.52890046 20.31908036 3.52890046 20.31908036 0 23 C0.33 22.175 0.66 21.35 1 20.5 C3.05947733 13.29182934 1.79070914 7.09057001 0 0 Z " fill="#F79595" transform="translate(382,52)"/>
<path d="M0 0 C0.94906219 0.2816803 1.89812439 0.5633606 2.87594604 0.85357666 C17.13865039 4.72183244 31.40473863 4.61178115 46.0758729 4.60750484 C49.67133775 4.61067742 53.26664796 4.63638372 56.86203003 4.65948486 C63.64004491 4.69972114 70.4179644 4.72030843 77.19608009 4.73345876 C84.92557648 4.7494399 92.65491302 4.78790081 100.38431573 4.82805204 C116.25616269 4.91000677 132.12797721 4.96437476 148 5 C147.85786156 6.91941623 147.7106408 8.83845655 147.5612793 10.75732422 C147.47984177 11.82602753 147.39840424 12.89473083 147.3144989 13.99581909 C145.69387951 29.47642593 135.98894797 42.62571352 125 53 C112.51707078 62.4424578 98.22030747 65.39524315 82.875 65.3125 C81.77623535 65.30686035 80.6774707 65.3012207 79.54541016 65.29541016 C56.26997017 64.95036107 36.53381288 57.54975396 19.37890625 41.46875 C8.56068247 30.24195619 -0.22462202 15.9706257 0 0 Z " fill="#E84343" transform="translate(65,354)"/>
<path d="M0 0 C20.13 0 40.26 0 61 0 C56.20213594 9.59572813 51.41440468 19.13503495 46.3125 28.5625 C45.71727539 29.66601807 45.12205078 30.76953613 44.50878906 31.90649414 C39.98307605 40.26400141 35.32648511 48.54202387 30.61889648 56.7980957 C27.25126901 62.72378022 24.01488983 68.70090101 20.875 74.75 C17.4441297 81.32170971 13.94797313 87.85138069 10.3125 94.3125 C9.88501465 95.0952832 9.4575293 95.87806641 9.01708984 96.68457031 C5.5458182 102.76824226 1.47981675 107.37114961 -4.9375 110.375 C-12.6331707 111.94554504 -18.30382539 111.12269259 -25 107 C-29.50880049 102.68723432 -32.89293668 97.44063162 -33.04711914 91.0456543 C-32.291151 82.86324764 -30.27503315 74.97241032 -28.20141602 67.04174805 C-27.77689128 65.39442338 -27.3669303 63.74327398 -26.97192383 62.08862305 C-24.50578651 51.76571064 -22.04839295 44.80362318 -14.31176758 37.28344727 C-11.23337869 34.24277019 -9.36811349 31.08141119 -7.5625 27.1875 C-7.23886475 26.51807373 -6.91522949 25.84864746 -6.58178711 25.15893555 C-3.57305317 18.64013996 -2.12093846 12.08692495 -1 5 C-0.67 3.35 -0.34 1.7 0 0 Z " fill="#F37B7B" transform="translate(213,359)"/>
<path d="M0 0 C2.51129364 1.60211983 4.40990962 3.6626811 6.421875 5.84375 C7.00737122 6.44626587 7.59286743 7.04878174 8.19610596 7.66955566 C10.06482029 9.59712763 11.90844947 11.54648937 13.75 13.5 C23.80859551 24.0599253 33.58666162 33.83236305 46.875 40.3125 C47.88626953 40.81148804 47.88626953 40.81148804 48.91796875 41.32055664 C55.06842311 44.23869241 61.26863118 45.96110252 68 47 C69.09539597 47.17084106 70.19079193 47.34168213 71.31938171 47.5177002 C77.50776817 48.27747595 83.72661025 48.16942081 89.95239258 48.18945312 C91.35442852 48.19740837 92.75646206 48.20579731 94.15849304 48.21458435 C97.16493331 48.23255958 100.17136857 48.24760424 103.17783546 48.26036072 C107.9408315 48.28070099 112.70376858 48.30833805 117.46672058 48.33703613 C127.58195258 48.39696456 137.69722032 48.44886386 147.8125 48.5 C158.7249063 48.55520708 169.63729459 48.61187657 180.5496437 48.67754889 C185.27495565 48.70571668 190.00026133 48.7293768 194.72561419 48.74947357 C197.67721403 48.76296567 200.62878184 48.78037123 203.58035469 48.79878426 C205.58082691 48.8101022 207.58132384 48.81675987 209.58181763 48.82322693 C216.06121463 48.86771504 222.39398013 49.1213958 228.82666206 49.92767143 C231.19830792 50.18332089 231.19830792 50.18332089 233.77758789 48.56884766 C234.74039673 47.502229 234.74039673 47.502229 235.72265625 46.4140625 C236.44517578 45.64835937 237.16769531 44.88265625 237.91210938 44.09375 C238.62173828 43.2790625 239.33136719 42.464375 240.0625 41.625 C241.53137374 40.03276631 243.00136911 38.44156638 244.47265625 36.8515625 C245.42023804 35.78156006 245.42023804 35.78156006 246.38696289 34.68994141 C248.57557778 32.39698057 249.70426144 32.03857459 252.875 31.625 C256 32 256 32 258.4375 34.0625 C260.53489834 38.00560888 260.15461319 39.70376487 259 44 C257.08394435 46.61592584 254.8212336 48.74968971 252.4375 50.9375 C251.82197266 51.52595703 251.20644531 52.11441406 250.57226562 52.72070312 C249.06148106 54.16121864 247.53249445 55.58260249 246 57 C249.21356648 60.27826916 252.59306433 63.25901786 256.09765625 66.21875 C258.0461029 68.04316822 259.58953119 69.73175391 261 72 C260.87890756 75.45113452 260.63213135 77.96862779 258.8125 80.9375 C256.07747338 82.54079147 254.1290747 82.3159528 251 82 C248.39453125 80.2421875 248.39453125 80.2421875 245.8125 77.875 C233.61513176 67.33713764 223.27225963 64.69552567 207.52197266 64.74462891 C206.05100308 64.74187581 204.58003499 64.73819398 203.10906982 64.73365784 C199.9492657 64.72556777 196.78953224 64.72337198 193.62971878 64.72560501 C188.61729473 64.72845146 183.60501014 64.71403357 178.59262085 64.69662476 C164.34155389 64.6497341 150.09049619 64.62568682 135.83935547 64.61914062 C127.9621022 64.61536963 120.08500686 64.59717446 112.20782125 64.56404626 C108.04954011 64.54726707 103.89154596 64.53792726 99.73323441 64.54698563 C63.59898422 64.61895986 35.66453688 57.60547709 9.2734375 31.50390625 C7.54876367 29.78237944 5.8304265 28.05493314 4.11669922 26.32250977 C2.34800684 24.53522306 0.57110189 22.75640578 -1.20703125 20.97851562 C-2.33902007 19.84162197 -3.47054855 18.70426974 -4.6015625 17.56640625 C-5.13061188 17.03624405 -5.65966125 16.50608185 -6.20474243 15.95985413 C-10.86545331 11.23782957 -10.86545331 11.23782957 -11.3125 7.125 C-11 4 -11 4 -9.4375 1.625 C-6.01856872 -0.65428752 -4.05947053 -0.50545114 0 0 Z " fill="#F79595" transform="translate(103,211)"/>
<path d="M0 0 C3.81870482 1.20218485 4.40437642 1.71188792 6.375 5.0625 C10.09749387 17.80782879 11.63833572 30.92845557 5.375 43.0625 C-1.36302256 53.89213514 -14.3351419 57.53854977 -25.625 62.0625 C-24.41648021 65.95912923 -22.9923198 69.38394714 -21 72.9375 C-18.58233894 77.67983516 -17.8837137 80.78083514 -18.625 86.0625 C-19.625 88.0625 -19.625 88.0625 -21.625 89.0625 C-27.19892317 89.77029977 -27.19892317 89.77029977 -29.625 89.0625 C-32.88956177 85.46000915 -35.04218547 81.56525251 -37.09375 77.19921875 C-37.41109604 76.5383577 -37.72844208 75.87749664 -38.05540466 75.1966095 C-39.08467367 73.05058308 -40.10507764 70.90048219 -41.125 68.75 C-42.55033422 65.76285859 -43.97963175 62.77762757 -45.41015625 59.79296875 C-45.76582169 59.04961273 -46.12148712 58.30625671 -46.4879303 57.54037476 C-48.694819 52.94460153 -50.9679951 48.39245831 -53.30859375 43.86328125 C-53.86160156 42.78925049 -54.41460937 41.71521973 -54.984375 40.60864258 C-56.00548521 38.63766609 -57.03736014 36.67221353 -58.08203125 34.71362305 C-60.86274561 29.31960669 -62.97839393 24.24648574 -62.625 18.0625 C-61.125 15.5 -61.125 15.5 -58.625 14.0625 C-55.125 13.5 -55.125 13.5 -51.625 14.0625 C-47.18554279 18.4648845 -44.77783713 24.38956422 -42.0625 29.9375 C-41.58103516 30.90558594 -41.09957031 31.87367187 -40.60351562 32.87109375 C-38.1266467 37.87934316 -35.76071377 42.89939398 -33.625 48.0625 C-30.38725652 46.85515243 -27.16176515 45.61784823 -23.9375 44.375 C-23.02548828 44.03533203 -22.11347656 43.69566406 -21.17382812 43.34570312 C-14.57655992 40.77876604 -10.61792423 38.05188634 -6.625 32.0625 C-5.95862883 25.53598233 -6.59379667 19.35747551 -8.16015625 13.0234375 C-8.83243224 10.18744972 -9.08481317 7.95275419 -8.625 5.0625 C-5.92665364 1.21940065 -4.75860157 0.08204485 0 0 Z " fill="#F79595" transform="translate(202.625,71.9375)"/>
<path d="M0 0 C2.5 1.75 2.5 1.75 4 5 C4.09017118 10.14669339 3.63034291 15.10897127 2 20 C1.40676358 25.8334915 2.00702059 29.41787136 5.41015625 34.25390625 C8.17761615 37.29335239 11.19206149 38.58158705 15 40 C16.76150391 40.66708984 16.76150391 40.66708984 18.55859375 41.34765625 C24.63303738 43.91272593 24.63303738 43.91272593 31 45 C31.6501709 43.56950317 31.6501709 43.56950317 32.31347656 42.11010742 C33.92775555 38.5659963 35.55620333 35.02854945 37.18896484 31.49291992 C37.89303221 29.96312053 38.59326839 28.43155173 39.28955078 26.89819336 C40.29232592 24.69165891 41.30880605 22.4919005 42.328125 20.29296875 C42.63558655 19.60849167 42.9430481 18.92401459 43.25982666 18.21879578 C44.97571687 14.55583961 46.39817529 11.97112327 50 10 C53.61752119 9.47244483 55.30182885 9.54067687 58.375 11.5625 C60.54746026 14.82119039 60.68574721 17.24528675 60 21 C58.38748443 25.20455684 56.3522125 29.17622906 54.3125 33.1875 C53.12014798 35.58876678 51.93011718 37.99108394 50.7421875 40.39453125 C50.28171272 41.32078308 50.28171272 41.32078308 49.81193542 42.26574707 C47.58993109 46.75031553 45.46226546 51.27194712 43.3828125 55.82421875 C43.09188217 56.45992294 42.80095184 57.09562714 42.50120544 57.75059509 C41.09795857 60.82131025 39.70294937 63.8954037 38.31567383 66.97338867 C37.8080249 68.08302979 37.30037598 69.1926709 36.77734375 70.3359375 C36.33640381 71.31095215 35.89546387 72.2859668 35.44116211 73.29052734 C33.27442597 77.36412343 31.48859325 80.46157265 27.0625 82.0625 C24 82 24 82 21.125 80.5 C18.94247679 77.93232563 18.27106564 76.58326682 18.4921875 73.21484375 C19.6318387 68.2442112 21.87747038 63.61650192 24 59 C23.33871094 58.89300781 22.67742187 58.78601563 21.99609375 58.67578125 C18.22843584 57.82597053 14.67203938 56.53814473 11.0625 55.1875 C10.37220703 54.93935547 9.68191406 54.69121094 8.97070312 54.43554688 C0.11237758 51.13571565 -6.78208053 45.94512982 -11.33203125 37.5390625 C-14.97883512 29.16301122 -14.17327022 21.5537333 -12.75 12.75 C-12.64042969 11.96109375 -12.53085937 11.1721875 -12.41796875 10.359375 C-11.83399773 6.72031348 -11.35768331 4.47518671 -9.109375 1.48828125 C-5.92631351 -0.75754547 -3.78648299 -0.60854191 0 0 Z " fill="#F79595" transform="translate(316,66)"/>
<path d="M0 0 C2 1.625 2 1.625 3 4 C2.66978887 9.57315516 1.09793595 13.04926605 -1.9375 17.6875 C-8.66496261 28.07782791 -10.04430522 36.50608335 -9 49 C-6.44063554 60.29131379 1.52251522 67.87384078 9.6796875 75.5078125 C16.47287427 81.91033677 16.47287427 81.91033677 17.25 85.8125 C17 89 17 89 16 91.375 C12.87503207 93.91403645 11.02802415 94.19809955 7 94 C3.87769269 92.15406447 1.52943932 89.5752022 -1 87 C-2.05987463 85.9933224 -3.1225796 84.98961963 -4.1875 83.98828125 C-10.58459161 77.89868932 -16.18311405 72.07702318 -20 64 C-20.48210938 63.05125 -20.96421875 62.1025 -21.4609375 61.125 C-26.97420389 48.94098587 -26.73870976 34.44870992 -22.2578125 21.92578125 C-12.03029023 -3.28098824 -12.03029023 -3.28098824 0 0 Z " fill="#F79595" transform="translate(70,176)"/>
<path d="M0 0 C2.21427264 0.00319166 4.42724631 -0.02046894 6.64135742 -0.0456543 C8.05346512 -0.04792468 9.46557639 -0.048632 10.87768555 -0.04760742 C12.15168213 -0.05058838 13.42567871 -0.05356934 14.73828125 -0.05664062 C17.8894043 0.31567383 17.8894043 0.31567383 19.79638672 1.59228516 C21.33857761 4.02389684 21.35258535 6.45696401 21.4831543 9.28051758 C20.55105122 12.4754235 18.61143612 13.50687427 15.8894043 15.31567383 C12.88183594 15.78222656 12.88183594 15.78222656 9.54956055 15.74926758 C8.3280127 15.75522949 7.10646484 15.76119141 5.84790039 15.76733398 C3.91938232 15.76032471 3.91938232 15.76032471 1.9519043 15.75317383 C-8.70266353 15.92466276 -17.57095769 16.17688148 -27.1105957 21.31567383 C-28.50084961 22.04077148 -28.50084961 22.04077148 -29.91918945 22.78051758 C-36.85289145 26.80304824 -42.51464015 32.12489386 -48.26293945 37.64379883 C-52.70665482 41.81321077 -52.70665482 41.81321077 -55.1105957 43.31567383 C-58.22091649 43.18872196 -60.31137613 42.79520557 -62.9855957 41.19067383 C-64.91310698 37.97815504 -64.71392635 35.99599079 -64.1105957 32.31567383 C-62.17732505 29.24030599 -59.70908561 26.83693589 -57.1105957 24.31567383 C-56.31137695 23.50743164 -55.5121582 22.69918945 -54.6887207 21.86645508 C-45.44577951 12.93799265 -34.4020679 6.23188421 -22.1105957 2.31567383 C-21.03165039 1.95860352 -19.95270508 1.6015332 -18.84106445 1.23364258 C-12.68762688 -0.26158524 -6.29515041 -0.01904415 0 0 Z " fill="#F79595" transform="translate(114.110595703125,285.684326171875)"/>
<path d="M0 0 C4.95 0 9.9 0 15 0 C13.45916656 12.94300092 9.80747294 22.65576913 -0.40234375 31.15625 C-9.74121483 37.78474196 -18.41203358 38.20408969 -29.5625 38.25 C-31.40038086 38.2809375 -31.40038086 38.2809375 -33.27539062 38.3125 C-50.68214913 38.3866897 -50.68214913 38.3866897 -56.77172852 33.61035156 C-58.8986075 30.82186145 -58.41195809 28.35451584 -58 25 C-56.625 22.5 -56.625 22.5 -54 21 C-52.03515625 21.0612793 -52.03515625 21.0612793 -49.6875 21.38671875 C-43.2480432 22.13998734 -36.85368566 22.2588685 -30.375 22.3125 C-29.199375 22.34150391 -28.02375 22.37050781 -26.8125 22.40039062 C-18.8082846 22.45884838 -13.06350723 21.65635818 -7.01171875 16.2109375 C-3.27636181 11.03212405 -1.54960912 6.19843646 0 0 Z " fill="#D83131" transform="translate(177,359)"/>
<path d="M0 0 C3.5164928 1.7582464 5.29355132 3.02593039 8.01831055 5.69604492 C8.79559006 6.45410934 9.57286957 7.21217377 10.373703 7.99320984 C11.6176458 9.224403 11.6176458 9.224403 12.88671875 10.48046875 C13.74433304 11.32668289 14.60194733 12.17289703 15.48554993 13.04475403 C17.29632527 14.83664512 19.10421442 16.63145681 20.90942383 18.42895508 C23.67359682 21.17369457 26.45834504 23.89637321 29.24414062 26.61914062 C31.00131648 28.363258 32.7572192 30.10865916 34.51171875 31.85546875 C35.76477058 33.07148018 35.76477058 33.07148018 37.0431366 34.3120575 C43.39144092 40.70998755 43.39144092 40.70998755 44.12426758 44.88793945 C44 48 44 48 42.5 50.9375 C40 53 40 53 36.68334961 53.42797852 C32.04135438 52.88861233 30.75914291 51.56438363 27.56640625 48.21484375 C26.84395973 47.47398277 26.84395973 47.47398277 26.10691833 46.71815491 C24.57469489 45.14036013 23.0683533 43.54044279 21.5625 41.9375 C20.05985205 40.36955108 18.55216005 38.80659858 17.04342651 37.24450684 C16.06082819 36.2268875 15.08028556 35.20727909 14.10183716 34.18566895 C10.83659223 30.79456651 7.43267915 27.67807567 3.84741211 24.6340332 C0.50800238 21.68033037 -2.48246435 18.40155158 -5.5 15.125 C-6.13164063 14.44953125 -6.76328125 13.7740625 -7.4140625 13.078125 C-12 8.13484172 -12 8.13484172 -12 7 C-7.17639811 6.80705592 -3.50353262 7.24252386 1 9 C0.67 6.03 0.34 3.06 0 0 Z " fill="#F79595" transform="translate(89,95)"/>
<path d="M0 0 C0.05402274 2.10388569 0.09280256 4.20816714 0.125 6.3125 C0.14820313 7.48425781 0.17140625 8.65601563 0.1953125 9.86328125 C0 13 0 13 -2 16 C-4.47998047 16.82788086 -4.47998047 16.82788086 -7.6171875 17.46484375 C-9.3504126 17.82618408 -9.3504126 17.82618408 -11.11865234 18.19482422 C-12.35824707 18.43990723 -13.5978418 18.68499023 -14.875 18.9375 C-16.13393066 19.19547363 -17.39286133 19.45344727 -18.68994141 19.71923828 C-21.24663799 20.24149726 -23.80442557 20.75844403 -26.36328125 21.27001953 C-29.61071367 21.92186049 -32.85286847 22.59382226 -36.09375 23.27734375 C-37.85403804 23.64384749 -39.61444582 24.00977686 -41.375 24.375 C-42.16890137 24.54249756 -42.96280273 24.70999512 -43.78076172 24.88256836 C-47.92572276 25.72049484 -51.74455229 26.17562165 -56 26 C-54.84166058 23.35838438 -53.65153935 20.7408859 -52.4375 18.125 C-51.95313477 17.00544922 -51.95313477 17.00544922 -51.45898438 15.86328125 C-51.12060547 15.14785156 -50.78222656 14.43242187 -50.43359375 13.6953125 C-50.13509521 13.03547363 -49.83659668 12.37563477 -49.52905273 11.69580078 C-47.18913744 9.10071031 -44.29476867 8.69938794 -41 8 C-40.28651901 7.84328827 -39.57303802 7.68657654 -38.8379364 7.52511597 C-36.42975447 7.01315634 -34.01710713 6.53065875 -31.6015625 6.0546875 C-30.72599701 5.87994904 -29.85043152 5.70521057 -28.94833374 5.525177 C-27.11149601 5.15914652 -25.27438347 4.79449269 -23.43701172 4.43115234 C-20.61234443 3.87249701 -17.78853553 3.309657 -14.96484375 2.74609375 C-13.17713136 2.39038353 -11.38937258 2.03490637 -9.6015625 1.6796875 C-8.75373199 1.51097137 -7.90590149 1.34225525 -7.03237915 1.16842651 C-1.11721514 0 -1.11721514 0 0 0 Z " fill="#F37C7C" transform="translate(512,200)"/>
<path d="M0 0 C8.52511309 1.80338931 15.99654135 12.27989634 22.05249023 18.35961914 C23.70507182 20.01762955 25.36302199 21.67013976 27.02148438 23.32226562 C28.07584219 24.37728311 29.12989038 25.43261014 30.18359375 26.48828125 C30.67830673 26.98097 31.17301971 27.47365875 31.682724 27.98127747 C34.55666194 30.87514302 36.08974341 32.45886617 36.625 36.5625 C36.25 39.6875 36.25 39.6875 34.125 42.0625 C30.61119481 44.0485638 29.24134123 44.32196176 25.25 43.6875 C22.40645521 41.75594204 20.07278342 39.37474931 17.6640625 36.93359375 C16.96227875 36.23992203 16.260495 35.54625031 15.53744507 34.83155823 C14.05932475 33.36189403 12.58881854 31.88453763 11.12548828 30.40014648 C8.88435531 28.13445781 6.6107698 25.90552252 4.33203125 23.67773438 C2.89894647 22.2442791 1.46788611 20.80879647 0.0390625 19.37109375 C-0.64207611 18.70726181 -1.32321472 18.04342987 -2.0249939 17.35948181 C-5.2157567 14.07197673 -6.63631307 12.51502899 -7.27587891 7.85961914 C-6.75 4.6875 -6.75 4.6875 -5.125 2.25 C-2.75 0.6875 -2.75 0.6875 0 0 Z " fill="#F79595" transform="translate(127.75,171.3125)"/>
<path d="M0 0 C2.15649414 1.32983398 2.15649414 1.32983398 4 4 C4.60172353 7.73738118 4.53599863 11.44446366 4.49609375 15.22265625 C4.49754898 16.31968369 4.49900421 17.41671112 4.50050354 18.54698181 C4.49884445 20.86443744 4.48728222 23.18190407 4.46655273 25.49926758 C4.43757974 29.05272018 4.445948 32.60468307 4.45898438 36.15820312 C4.45274765 38.40886144 4.44435722 40.65951503 4.43359375 42.91015625 C4.43652939 43.97581314 4.43946503 45.04147003 4.44248962 46.13941956 C4.42346336 47.62126991 4.42346336 47.62126991 4.40405273 49.13305664 C4.39864975 50.00257462 4.39324677 50.87209259 4.38768005 51.76795959 C3.91902151 54.46622789 3.15065489 55.35488318 1 57 C-0.9375 57.3984375 -0.9375 57.3984375 -3 57.375 C-4.0209375 57.38660156 -4.0209375 57.38660156 -5.0625 57.3984375 C-7.61563694 56.87339724 -8.39265584 56.03674712 -10 54 C-10.38768005 51.76795959 -10.38768005 51.76795959 -10.40405273 49.13305664 C-10.41673691 48.1451564 -10.42942108 47.15725616 -10.44248962 46.13941956 C-10.43955399 45.07376266 -10.43661835 44.00810577 -10.43359375 42.91015625 C-10.4388356 41.81408554 -10.44407745 40.71801483 -10.44947815 39.58872986 C-10.45590481 37.2695297 -10.45455307 34.95029697 -10.44604492 32.63110352 C-10.43754107 29.07965083 -10.46627953 25.52980906 -10.49804688 21.97851562 C-10.49965907 19.72656298 -10.49908101 17.47460749 -10.49609375 15.22265625 C-10.50732773 14.15902359 -10.51856171 13.09539093 -10.53013611 11.99952698 C-10.46073215 4.66733248 -10.46073215 4.66733248 -8.15649414 1.32983398 C-5.18512306 -0.50250591 -3.42829476 -0.57138246 0 0 Z " fill="#F79595" transform="translate(259,115)"/>
<path d="M0 0 C1.921875 0.8046875 1.921875 0.8046875 4 2 C5.25 5.125 5.25 5.125 6 8 C6.66 8 7.32 8 8 8 C8.2475 7.05125 8.495 6.1025 8.75 5.125 C10 2 10 2 12.078125 0.8046875 C12.71234375 0.53914063 13.3465625 0.27359375 14 0 C14.10126926 7.06571232 14.17141018 14.13123812 14.21972656 21.19750977 C14.23986447 23.6022033 14.2671767 26.00684775 14.30175781 28.41137695 C14.35017877 31.86421814 14.37294711 35.31641298 14.390625 38.76953125 C14.41127014 39.84773636 14.43191528 40.92594147 14.45318604 42.03681946 C14.45348816 43.03763046 14.45379028 44.03844147 14.45410156 45.06958008 C14.46298401 45.95116287 14.47186646 46.83274567 14.48101807 47.74104309 C14 50 14 50 12.15911865 51.78471375 C9.22889049 53.43402839 7.31489391 53.41436174 4 53 C1.84088135 51.78471375 1.84088135 51.78471375 0 50 C-0.48101807 47.74104309 -0.48101807 47.74104309 -0.45410156 45.06958008 C-0.45379944 44.06876907 -0.45349731 43.06795807 -0.45318604 42.03681946 C-0.43254089 40.95861435 -0.41189575 39.88040924 -0.390625 38.76953125 C-0.38496521 37.66397385 -0.37930542 36.55841644 -0.37347412 35.4193573 C-0.35105795 31.88330036 -0.30084996 28.34825141 -0.25 24.8125 C-0.22994187 22.41733233 -0.21168991 20.02214879 -0.1953125 17.62695312 C-0.151176 11.75095733 -0.08421128 5.87555067 0 0 Z " fill="#F79595" transform="translate(249,48)"/>
<path d="M0 0 C2.74481351 2.74481351 3.40993136 5.9337351 4.5 9.5625 C4.72067139 10.28832275 4.94134277 11.01414551 5.16870117 11.76196289 C7.66012658 20.06021891 9.27666523 27.28504528 9 36 C4.44508386 38.20399168 -0.02906176 38.58846263 -5 39 C-5.98916033 36.64960987 -6.96636681 34.29533139 -7.9375 31.9375 C-8.35418945 30.95233398 -8.35418945 30.95233398 -8.77929688 29.94726562 C-10.5315187 25.66171104 -11.94510425 21.68809712 -12 17 C-10.19921875 14.19921875 -10.19921875 14.19921875 -7.6875 11.6875 C-6.86636719 10.84574219 -6.04523438 10.00398437 -5.19921875 9.13671875 C-4.47347656 8.43160156 -3.74773437 7.72648438 -3 7 C-0.64046906 4.64046906 -0.50858587 3.22104383 0 0 Z " fill="#F8AFAF" transform="translate(462,143)"/>
<path d="M0 0 C-0.680625 0.65355469 -1.36125 1.30710937 -2.0625 1.98046875 C-4.29609265 4.19763792 -6.27366016 6.54031485 -8.25 8.98828125 C-18.5810418 21.18758465 -18.5810418 21.18758465 -26.71875 22.04296875 C-31.85680746 22.16857147 -36.92116459 21.77041844 -42 21 C-41.63648437 20.58097412 -41.27296875 20.16194824 -40.8984375 19.73022461 C-38.22107623 16.62766062 -35.61741904 13.50723206 -33.125 10.25390625 C-23.53785911 -1.44654575 -14.52963499 -1.79597498 0 0 Z " fill="#F37C7C" transform="translate(140,338)"/>
<path d="M0 0 C4.52084403 7.53474005 6 16.32730249 6 25 C1.05 25 -3.9 25 -9 25 C-9.433125 23.040625 -9.86625 21.08125 -10.3125 19.0625 C-11.57542007 13.56579075 -13.10982707 8.31048585 -15 3 C-12.87562952 2.49733206 -10.75048274 1.9979439 -8.625 1.5 C-7.44164062 1.2215625 -6.25828125 0.943125 -5.0390625 0.65625 C-2 0 -2 0 0 0 Z " fill="#F37C7C" transform="translate(417,256)"/>
<path d="M0 0 C2.4375 2.0625 2.4375 2.0625 4 5 C4.0625 8.625 4.0625 8.625 3 12 C-0.64487331 14.7187712 -4.21871578 15.73027274 -8.625 16.6875 C-9.75164062 16.93886719 -10.87828125 17.19023437 -12.0390625 17.44921875 C-15 18 -15 18 -18 18 C-17.34 12.72 -16.68 7.44 -16 2 C-3.81176471 -0.63529412 -3.81176471 -0.63529412 0 0 Z " fill="#F37C7C" transform="translate(487,177)"/>
<path d="M0 0 C0.66 0.33 1.32 0.66 2 1 C2.46455163 4.99514406 2.28682179 6.59149623 -0.0625 9.9375 C-3 12 -3 12 -6.6875 12.0625 C-10 11 -10 11 -11.20703125 8.93359375 C-11.46871094 8.29550781 -11.73039062 7.65742188 -12 7 C-10.04754815 5.80285445 -8.08785003 4.61751926 -6.125 3.4375 C-5.03445313 2.77621094 -3.94390625 2.11492187 -2.8203125 1.43359375 C-1.88960938 0.96050781 -0.95890625 0.48742187 0 0 Z " fill="#F37D7D" transform="translate(435,246)"/>
<path d="M0 0 C-1.98 2.31 -3.96 4.62 -6 7 C-6.99 6.67 -7.98 6.34 -9 6 C-10.1875 3.4375 -10.1875 3.4375 -11 1 C-7.57067929 -0.71466036 -3.78283935 -0.05404056 0 0 Z " fill="#F37E7E" transform="translate(441,88)"/>
</svg>
